<svg width="580" height="399.99999999999994" xmlns="http://www.w3.org/2000/svg">
 <!-- Created with Method Draw - http://github.com/duopixel/Method-Draw/ -->

 <g>
  <title>background</title>
  <rect x="-1" y="-1" width="582" height="402" id="canvas_background" fill="#fff"/>
  <g id="canvasGrid" display="none">
   <rect id="svg_1" width="100%" height="100%" x="0" y="0" stroke-width="0" fill="url(#gridpattern)"/>
  </g>
 </g>
 <g>
  <title>Layer 1</title>
  <path fill="#ff7504" stroke="#000" stroke-width="1.5" stroke-opacity="null" opacity="0.5" d="m335.5,176.8375" id="svg_5"/>
  <path stroke="#000" fill="#ff7504" stroke-width="0" stroke-opacity="null" fill-opacity="null" d="m4.875098,16.605717c-0.029873,-2.433882 0.634361,-4.022277 1.627162,-5.678671c0.992793,-1.656386 2.932073,-3.720554 4.74924,-4.408087c1.81716,-0.687541 3.921607,-1.167871 6.000649,-0.805492c2.079049,0.36238 5.338262,2.391187 6.88208,4.50682c1.54381,2.115634 3.648258,6.518236 3.552675,8.990873c-0.095591,2.472637 -0.470363,4.422155 -1.946421,6.460716c-1.476058,2.03856 -3.891329,3.333441 -5.87534,3.882768c-1.984019,0.549335 -4.916731,0.058456 -7.001448,-0.884383c-2.084724,-0.942847 -7.953368,-4.693612 -8.669499,-10.903462c-0.716131,-6.209842 -5.777823,8.471585 -4.537555,10.492192c1.240268,2.020599 16.396471,3.800382 11.481619,0.594933c-4.914845,-3.205448 -6.233289,-9.814326 -6.263162,-12.248208z" id="svg_10" transform="rotate(121 13.575971603393558,18.100341796875) "/>
 </g>
</svg>