<svg width="346.5" height="346.5" xmlns="http://www.w3.org/2000/svg">

 <g>
  <title>background</title>
  <rect fill="none" id="canvas_background" height="402" width="582" y="-1" x="-1"/>
 </g>
 <g>
  <title>Layer 1</title>
  <g stroke="null" id="svg_1">
   <path stroke="null" id="svg_2" d="m29.031299,13.724043c0.010324,0.071097 0.016031,0.143561 0.016031,0.21733l0,1.319889c1.963928,-1.031152 3.300786,-3.046845 3.300786,-5.359479c0,-3.35839 -2.819215,-6.090645 -6.284415,-6.090645s-6.284415,2.732254 -6.284415,6.090645c0,2.312634 1.336859,4.328265 3.300786,5.359479l0,-1.319889c0,-0.073831 0.005707,-0.146295 0.016031,-0.21733c-1.195657,-0.874229 -1.970212,-2.262108 -1.970212,-3.82226c0,-2.638784 2.215102,-4.785546 4.93781,-4.785546s4.93781,2.146762 4.93781,4.785546c0,1.560152 -0.77449,2.94803 -1.970212,3.82226z"/>
   <path stroke="null" id="svg_3" d="m26.063702,1.170055c-4.96782,0 -9.009432,3.917035 -9.009432,8.731728c0,3.801565 2.520012,7.042931 6.025803,8.23896l0,-1.398506c-2.747332,-1.12978 -4.679197,-3.770615 -4.679197,-6.840455c0,-4.095087 3.437499,-7.42663 7.662826,-7.42663s7.662826,3.331543 7.662826,7.42663c0,3.069839 -1.931866,5.710675 -4.679197,6.840455l0,1.398506c3.505791,-1.196029 6.025803,-4.437396 6.025803,-8.23896c0,-4.814694 -4.041612,-8.731728 -9.009432,-8.731728z"/>
   <path stroke="null" id="svg_4" d="m27.444229,13.319898l-2.761118,0c-0.354157,0 -0.641241,0.278235 -0.641241,0.621475l0,4.32957c0,0.343241 0.287083,0.621475 0.641241,0.621475l0.119463,0l0,3.190281c0,0.343179 0.287083,0.621475 0.641241,0.621475l1.239646,0c0.354157,0 0.641241,-0.278297 0.641241,-0.621475l0,-3.190281l0.119463,0c0.354157,0 0.641241,-0.278235 0.641241,-0.621475l0,-4.32957c0.000064,-0.343241 -0.286955,-0.621475 -0.641177,-0.621475z"/>
   <circle stroke="null" id="svg_5" r="2.174194" cy="9.872139" cx="26.063702"/>
  </g>
  <line stroke="#000" transform="translate(56.18729019165039,34.97372055053711) translate(-53.333343505859375,-72.22223663330078) " stroke-linecap="undefined" stroke-linejoin="undefined" id="svg_8" y2="37.661896" x2="-0.982853" y1="39.884119" x1="-1.723594" stroke-width="1.5" fill="none"/>
 </g>
</svg>