<?xml version="1.0" encoding="utf-8"?>
<!-- Svg Vector Icons : http://www.onlinewebfonts.com/icon -->
<!DOCTYPE svg PUBLIC "-//W3C//DTD SVG 1.1//EN" "http://www.w3.org/Graphics/SVG/1.1/DTD/svg11.dtd">
<svg version="1.1" xmlns="http://www.w3.org/2000/svg" xmlns:xlink="http://www.w3.org/1999/xlink" x="0px" y="0px" viewBox="0 0 1000 1000" enable-background="new 0 0 1000 1000" xml:space="preserve">
<metadata> Svg Vector Icons : http://www.onlinewebfonts.com/icon </metadata>
<g><g transform="translate(0.000000,512.000000) scale(0.100000,-0.100000)"><path d="M4689.7,5016.6c-759.2-65.2-1353.5-232-1968.9-554.1c-893.4-465.9-1652.6-1236.6-2105-2137.6C264.9,1625.1,100,923.4,100,120.1c0-801.4,164.9-1506.9,513.8-2202.8c400.7-795.6,1071.7-1522.2,1842.4-1991.9c1608.5-981.6,3671.4-937.5,5249.1,111.2C9743.3-2608,10471.8,18.5,9423.1,2229c-245.4,511.9-540.6,927.9-964.3,1353.5c-784.1,784.1-1704.4,1240.4-2810.5,1397.6C5448.9,5008.9,4854.5,5031.9,4689.7,5016.6z M5504.5,3534.6c1689-253.1,2939-1700.5,2942.8-3408.7c1.9-1173.3-582.8-2250.7-1572.1-2900.7c-1089-713.2-2523-743.9-3640.7-72.9C2333.5-2308.9,1737.3-1419.3,1580-378.3c-53.7,354.7-40.3,841.6,30.7,1181c199.4,950.9,770.7,1765.7,1593.2,2269.9c385.4,237.7,903,417.9,1370.8,477.4C4810.4,3580.6,5241.8,3572.9,5504.5,3534.6z"/><path d="M2448.5,589.8c-226.2-70.9-302.9-320.2-145.7-477.4C2368,47.3,2414,26.2,2676.7-56.2c122.7-38.3,145.7-51.8,163-99.7c15.3-47.9,11.5-59.4-34.5-99.7c-95.9-82.4-241.6-42.2-283.7,78.6l-24.9,67.1l-155.3-11.5c-84.4-7.7-155.3-15.3-159.1-17.3c-17.3-15.3,42.2-170.6,86.3-222.4c105.4-122.7,358.5-180.2,590.5-132.3c97.8,19.2,128.5,36.4,203.2,115c99.7,101.6,122.7,170.6,103.5,297.2c-23,159.1-95.9,212.8-410.3,304.8c-222.4,65.2-262.7,99.7-203.2,164.9c67.1,72.9,258.8,28.8,258.8-59.4c0-32.6,17.3-36.4,163-36.4c176.4,0,182.1,3.8,141.9,109.3c-28.8,76.7-92,140-180.2,180.2C2841.5,626.3,2577,630.1,2448.5,589.8z"/><path d="M3290.1,465.2V331h172.5h172.5V-81.2v-412.2h163h163v412.2V331h172.5h172.5v134.2v134.2h-508h-508V465.2z"/><path d="M4501.8,173.8c-88.2-235.8-180.2-481.2-205.1-546.4l-46-120.8h178.3h180.2l17.3,92l15.3,90.1H4843h199.4l28.8-90.1l28.8-92h174.5h176.4L5247.6,49.2l-205.1,540.6l-191.7,5.7l-189.8,3.8L4501.8,173.8z M4910.1,139.3c26.8-88.2,47.9-170.6,47.9-186c0-17.2-32.6-24.9-115-24.9c-82.4,0-111.2,5.8-105.4,24.9c3.8,11.5,30.7,99.7,57.5,191.7c28.8,94,55.6,166.8,59.4,161C4858.4,302.3,4883.3,227.5,4910.1,139.3z"/><path d="M5571.6,53v-546.4h172.5h172.5v220.5v220.5h47.9c69,0,120.8-63.3,220.5-266.5l84.4-174.5h187.9h187.9l-19.2,46c-78.6,209-197.5,381.5-287.6,417.9c-47.9,19.2-46,21.1,30.7,47.9c249.2,84.4,255,492.7,9.6,561.7c-38.3,9.6-235.8,19.2-437.1,19.2h-370V53z M6131.4,386.6c51.8-13.4,76.7-32.6,84.4-65.2c28.8-111.2-32.6-163-197.5-163h-101.6v111.2c0,61.4,5.7,118.9,13.4,124.6C5949.2,413.5,6050.8,409.6,6131.4,386.6z"/><path d="M6683.5,465.2V331h172.5h172.5V-81.2v-412.2h163h162.9v412.2V331h182.1h182.1v134.2v134.2h-517.6h-517.6V465.2z"/></g></g>
</svg>